# xmcd
#
# Track frame offsets:
#	150
#	9936
#	22631
#	39579
#	53060
#	64382
#	75592
#	85929
#	100322
#	113148
#	124950
#	137303
#	145692
#	163329
#	175015
#	188414
#	206074
#	217648
#	230364
#	242862
#
# Disc length: 3447 seconds
#
# Revision: 2
# Processed by: cddbd v1.5.2PL0 Copyright (c) Steve Scherf et al.
# Submitted via: EasyCDDAExtractor 10.0.5.1
#
DISCID=fc0d7514
DTITLE=Various Artist - Country Greats - Disc 10
DYEAR=1900
DGENRE=Country
TTITLE0=Ned Miller - From A Jack To A King
TTITLE1=Reg Lindsay - Sixteen Tons
TTITLE2=Colleen Hewett - Dreaming My Dreams With You
TTITLE3=David Houston - Almost Persuaded
TTITLE4=Donna Fargo - Superman
TTITLE5=Ernie Ashworth - Talk Back Trembling Lips
TTITLE6=Ralph Emery - Hello Fool
TTITLE7=Bill and Boyd - I'll Be Your Baby Tonight
TTITLE8=Charlie Rich - Good Time Charlie's Got The Blues
TTITLE9=Conway Twitty - Linda On My Mind
TTITLE10=Hank Williams - Move It On Over
TTITLE11=Carl and Pearl Butler - Leaning On The Everlasting Arms
TTITLE12=Don Fardon - Gone Country
TTITLE13=Don Gibson - I Can't Stop Loving You
TTITLE14=Lee Conway - Love Still Makes The World Go Round
TTITLE15=Ferlin Husky - Convoy
TTITLE16=Don Williams - Follow Me Back To Louisville
TTITLE17=Faron Young - Three Days
TTITLE18=Willie Nelson - Shelter Of Your Arms
TTITLE19=Lacy J Dalton - Everybody Makes Mistakes
EXTD=
EXTT0=
EXTT1=
EXTT2=
EXTT3=
EXTT4=
EXTT5=
EXTT6=
EXTT7=
EXTT8=
EXTT9=
EXTT10=
EXTT11=
EXTT12=
EXTT13=
EXTT14=
EXTT15=
EXTT16=
EXTT17=
EXTT18=
EXTT19=
PLAYORDER=
